<svg xmlns="http://www.w3.org/2000/svg" width="72" height="72" viewBox="0 0 72 72">
    <g fill="none" fill-rule="evenodd">
        <path fill="#FFD8E3" d="M30.11 0h11.78C51.8 0 55.81 1.114 59.722 3.206c3.911 2.091 6.98 5.16 9.072 9.072C70.886 16.189 72 20.2 72 30.11v11.78c0 9.91-1.114 13.921-3.206 17.832-2.091 3.911-5.16 6.98-9.072 9.072C55.811 70.886 51.8 72 41.89 72H30.11c-9.91 0-13.921-1.114-17.832-3.206-3.911-2.091-6.98-5.16-9.072-9.072C1.114 55.811 0 51.8 0 41.89V30.11C0 20.2 1.114 16.19 3.206 12.278c2.091-3.911 5.16-6.98 9.072-9.072C16.189 1.114 20.2 0 30.11 0z"/>
        <g fill-rule="nonzero">
            <path fill="#FFA6BF" d="M57.982 33.551l-6.934-6.903v-7.974a2.616 2.616 0 0 0-2.624-2.61 2.616 2.616 0 0 0-2.62 2.61v2.753l-5.163-5.14c-2.552-2.54-6.99-2.536-9.537.004L13.768 33.55a2.604 2.604 0 0 0 0 3.693 2.63 2.63 0 0 0 3.71 0l17.334-17.261c.565-.56 1.56-.56 2.122-.002l17.338 17.263c.514.51 1.185.764 1.855.764.671 0 1.343-.254 1.855-.764a2.603 2.603 0 0 0 0-3.693z"/>
            <path fill="#FFA6BF" d="M36.838 25.394a1.264 1.264 0 0 0-1.805 0L19.926 40.689a1.303 1.303 0 0 0-.373.915V52.76c0 2.618 2.095 4.74 4.68 4.74H47.637c2.584 0 4.68-2.122 4.68-4.74V41.604c0-.344-.135-.674-.374-.915L36.838 25.394z"/>
            <path fill="#FF638E" d="M35.935 52.9l-1.187-1.203c-4.406-3.952-7.287-6.616-7.287-9.882 0-2.664 2.034-4.726 4.66-4.726 1.441 0 2.882.688 3.814 1.805.932-1.117 2.372-1.805 3.813-1.805 2.626 0 4.66 2.062 4.66 4.726 0 3.266-2.881 5.93-7.287 9.882L35.935 52.9z"/>
        </g>
    </g>
</svg>
