<svg xmlns="http://www.w3.org/2000/svg" width="72" height="72" viewBox="0 0 72 72">
    <g fill="none" fill-rule="evenodd">
        <path fill="#D1F5D9" d="M30.11 0h11.78C51.8 0 55.81 1.114 59.722 3.206c3.911 2.091 6.98 5.16 9.072 9.072C70.886 16.189 72 20.2 72 30.11v11.78c0 9.91-1.114 13.921-3.206 17.832-2.091 3.911-5.16 6.98-9.072 9.072C55.811 70.886 51.8 72 41.89 72H30.11c-9.91 0-13.921-1.114-17.832-3.206-3.911-2.091-6.98-5.16-9.072-9.072C1.114 55.811 0 51.8 0 41.89V30.11C0 20.2 1.114 16.19 3.206 12.278c2.091-3.911 5.16-6.98 9.072-9.072C16.189 1.114 20.2 0 30.11 0z"/>
        <g transform="translate(15 15)">
            <ellipse cx="21.5" cy="14.589" fill="#49D769" rx="3.876" ry="3.839"/>
            <path fill="#49D769" d="M28.011 21.5H14.99c-.685 0-1.24.55-1.24 1.229v8.292c0 .679.555 1.229 1.24 1.229h1.86v9.521c0 .679.555 1.229 1.24 1.229h6.822c.685 0 1.24-.55 1.24-1.229V32.25h1.86c.685 0 1.24-.55 1.24-1.229V22.73c0-.679-.555-1.229-1.24-1.229z"/>
            <ellipse cx="6.201" cy="3.071" fill="#7AE692" rx="3.101" ry="3.071"/>
            <path fill="#7AE692" d="M11.162 9.214H1.24c-.685 0-1.24.55-1.24 1.229V17.2c0 .679.555 1.229 1.24 1.229H3.1v7.985c0 .679.556 1.229 1.241 1.229h3.72c.686 0 1.241-.55 1.241-1.229V18.43h1.86c.685 0 1.24-.55 1.24-1.229v-6.757c0-.679-.555-1.229-1.24-1.229z"/>
            <ellipse cx="36.799" cy="3.071" fill="#7AE692" rx="3.101" ry="3.071"/>
            <path fill="#7AE692" d="M41.76 9.214h-9.922c-.685 0-1.24.55-1.24 1.229V17.2c0 .679.555 1.229 1.24 1.229h1.86v7.985c0 .679.555 1.229 1.24 1.229h3.721c.685 0 1.24-.55 1.24-1.229V18.43h1.86c.686 0 1.241-.55 1.241-1.229v-6.757c0-.679-.555-1.229-1.24-1.229z"/>
        </g>
    </g>
</svg>
