<svg xmlns="http://www.w3.org/2000/svg" xmlns:xlink="http://www.w3.org/1999/xlink" width="96" height="90" viewBox="0 0 96 90">
    <defs>
        <ellipse id="a" cx="47.535" cy="44.696" rx="47.535" ry="44.696"/>
    </defs>
    <g fill="none" fill-rule="evenodd">
        <g>
            <ellipse cx="47.535" cy="44.696" fill="#2E69B3" rx="47.535" ry="44.696"/>
            <mask id="b" fill="#fff">
                <use xlink:href="#a"/>
            </mask>
            <use fill="#2E69B3" xlink:href="#a"/>
            <path fill="#136A3A" fill-rule="nonzero" d="M68.68 64.062c-2.886-.35-9.963-1.84-15.829-3.33-12.943-3.156-23-4.47-29.238-3.944-1.356.122-7.524 2.018-8.103 1.974-2.325-.175 6.46-3.376 12.945-4.428 5.587-.877 8.566-.701 21.789.876 8.473 1.052 18.25 1.928 21.882 1.928 6.797 0 14.992-1.753 18.81-4.119 1.373-.792 3.519-.97 3.519-.97s-.344 2.213-.912 4.226c-.569 2.014-1.419 4.025-1.419 4.025s-2.047.785-4.168 1.658c-5.68 2.367-12.198 3.155-19.275 2.104z" mask="url(#b)"/>
            <path fill="#348C44" fill-rule="nonzero" d="M64.761 68.662c-3.166-.701-11.64-3.068-18.716-5.259-17.692-5.433-29.937-2.843-41.577.4-.838.263 6.032-3.494 8.055-4.343 5.92-2.485 14.62-3.681 22.627-2.63 3.632.439 12.571 2.28 20.02 4.032 16.296 3.768 25.142 4.119 32.125 1.227 2.421-1.052 4.909-1.982 4.909-1.982s-.983 2.656-2.193 4.76c-1.583 2.716-1.957 3.24-1.957 3.24s-6.151 4.228-23.293.555z" mask="url(#b)"/>
            <path fill="#65B54D" fill-rule="nonzero" d="M32.528 87.465c-7.923-2.542-14.862-6.743-20.135-12.27-4.699-4.925-7.96-11.336-7.96-11.336s6.375-3.387 10.85-4.702c7.83-2.103 15.474-1.14 32.44 3.944 20.415 6.222 25.864 8.354 35.558 5.9 1.242-.338 4.776-.798 4.776-.798s-1.769 3.223-6.31 7.606C71.402 85.537 61.054 89.48 45.766 89.48c-4.94 0-9.042-.7-13.237-2.015z" mask="url(#b)"/>
        </g>
        <text fill="#FFF" font-family="Avenir-Black, Avenir" font-size="23.263" font-weight="700" letter-spacing=".214">
            <tspan x="15.55" y="49.204">GSVC</tspan>
        </text>
    </g>
</svg>
