<?xml version="1.0" encoding="UTF-8"?>
<svg width="124px" height="59px" viewBox="0 0 124 59" version="1.1" xmlns="http://www.w3.org/2000/svg" xmlns:xlink="http://www.w3.org/1999/xlink">
    <!-- Generator: Sketch 48 (47235) - http://www.bohemiancoding.com/sketch -->
    <title>Comment Copy</title>
    <desc>Created with Sketch.</desc>
    <defs></defs>
    <g id="Tablet-Portrait" stroke="none" stroke-width="1" fill="none" fill-rule="evenodd" transform="translate(-598.000000, -4239.000000)">
        <g id="People-love-otsimo" transform="translate(-57.000000, 3802.000000)">
            <g id="Emojis" transform="translate(105.000000, 324.000000)">
                <g id="2" transform="translate(523.000000, 113.000000)">
                    <g id="Comment-Copy" transform="translate(27.706061, 0.675258)">
                        <path d="M3.77594365,19.4976784 L0.00680473597,16.4000095 L3.77594365,13.3023407 L3.77594365,12.96 C3.77594365,5.80238964 9.57833329,-7.67206675e-15 16.7359436,0 L110.027879,0 C117.185489,1.31483169e-15 122.987879,5.80238964 122.987879,12.96 L122.987879,45.1121649 C122.987879,52.2697753 117.185489,58.0721649 110.027879,58.0721649 L16.7359436,58.0721649 C9.57833329,58.0721649 3.77594365,52.2697753 3.77594365,45.1121649 L3.77594365,19.4976784 Z" id="Combined-Shape" fill="#FFFFFF"></path>
                        <rect id="Rectangle-5" fill="#F0F0F0" x="20.4979798" y="13.4426308" width="85.2284423" height="4.30164185" rx="2.15082092"></rect>
                        <rect id="Rectangle-5-Copy" fill="#F0F0F0" x="20.4979798" y="26.8852616" width="85.2284423" height="4.30164185" rx="2.15082092"></rect>
                        <rect id="Rectangle-5-Copy-2" fill="#F0F0F0" x="20.4979798" y="40.3278923" width="63.112201" height="4.30164185" rx="2.15082092"></rect>
                    </g>
                </g>
            </g>
        </g>
    </g>
</svg>