<?xml version="1.0" encoding="UTF-8"?>
<svg width="154px" height="73px" viewBox="0 0 154 73" version="1.1" xmlns="http://www.w3.org/2000/svg" xmlns:xlink="http://www.w3.org/1999/xlink">
    <!-- Generator: Sketch 48 (47235) - http://www.bohemiancoding.com/sketch -->
    <title>Comment</title>
    <desc>Created with Sketch.</desc>
    <defs></defs>
    <g id="Tablet-Portrait" stroke="none" stroke-width="1" fill="none" fill-rule="evenodd" transform="translate(-514.000000, -4126.000000)">
        <g id="People-love-otsimo" transform="translate(-57.000000, 3802.000000)">
            <g id="Emojis" transform="translate(105.000000, 324.000000)">
                <g id="1" transform="translate(466.000000, 0.000000)">
                    <g id="Comment">
                        <path d="M149.342424,16.7553264 L154.026287,20.5953608 L149.342424,24.4353953 L149.342424,56.7278351 C149.342424,65.674848 142.089437,72.9278351 133.142424,72.9278351 L16.2,72.9278351 C7.25298705,72.9278351 -2.84217094e-14,65.674848 -2.84217094e-14,56.7278351 L-2.84217094e-14,16.2 C0,7.25298705 7.25298705,-1.39839136e-14 16.2,3.55271368e-15 L133.142424,0 C142.089437,5.19625329e-15 149.342424,7.25298705 149.342424,16.2 L149.342424,16.7553264 Z" id="Combined-Shape" fill="#FFFFFF"></path>
                        <rect id="Rectangle-5" fill="#F0F0F0" x="20.9484848" y="16.8814433" width="106.769697" height="5.40206186" rx="2.70103093"></rect>
                        <rect id="Rectangle-5-Copy" fill="#F0F0F0" x="20.9484848" y="33.7628866" width="106.769697" height="5.40206186" rx="2.70103093"></rect>
                        <rect id="Rectangle-5-Copy-2" fill="#F0F0F0" x="20.9484848" y="50.6443299" width="79.0636364" height="5.40206186" rx="2.70103093"></rect>
                    </g>
                </g>
            </g>
        </g>
    </g>
</svg>