<?xml version="1.0" encoding="UTF-8"?>
<svg width="23px" height="21px" viewBox="0 0 23 21" version="1.1" xmlns="http://www.w3.org/2000/svg" xmlns:xlink="http://www.w3.org/1999/xlink">
    <g id="Desktop" stroke="none" stroke-width="1" fill="none" fill-rule="evenodd" transform="translate(-1202.000000, -7331.000000)">
        <g id="Footer" transform="translate(-277.000000, 7014.000000)" fill="#A1A1A1" fill-rule="nonzero">
            <path d="M1500.45735,322.36061 C1499.42899,320.711509 1498.03408,319.405913 1496.27226,318.443528 C1494.51018,317.481094 1492.58651,317 1490.4999,317 C1488.41354,317 1486.48924,317.481241 1484.72753,318.443528 C1482.96555,319.405864 1481.57069,320.711509 1480.54233,322.36061 C1479.51413,324.009662 1479,325.81044 1479,327.762894 C1479,330.108234 1479.7311,332.217225 1481.19366,334.090405 C1482.65607,335.963732 1484.54528,337.260001 1486.86114,337.97936 C1487.13071,338.026188 1487.33027,337.993251 1487.46002,337.881384 C1487.58982,337.769369 1487.65465,337.629081 1487.65465,337.461107 C1487.65465,337.433079 1487.65208,337.180923 1487.64709,336.704345 C1487.64195,336.227767 1487.63954,335.812006 1487.63954,335.45726 L1487.29513,335.513022 C1487.07554,335.550671 1486.79852,335.566624 1486.46407,335.562108 C1486.12978,335.55774 1485.78274,335.52495 1485.42343,335.463985 C1485.06397,335.40356 1484.72962,335.263418 1484.42014,335.043856 C1484.11081,334.824293 1483.89122,334.536893 1483.76142,334.182098 L1483.61168,333.859601 C1483.51188,333.644898 1483.35475,333.406388 1483.14009,333.144955 C1482.92543,332.883276 1482.70835,332.705878 1482.48876,332.612467 L1482.38392,332.542225 C1482.31407,332.495544 1482.24924,332.439242 1482.1893,332.373908 C1482.1294,332.308574 1482.08456,332.243191 1482.05461,332.17771 C1482.02462,332.11218 1482.04947,332.058431 1482.12946,332.016266 C1482.20944,331.974101 1482.35398,331.953632 1482.56371,331.953632 L1482.86307,331.995502 C1483.06273,332.032955 1483.3097,332.144822 1483.60429,332.331792 C1483.89872,332.518614 1484.14076,332.761493 1484.33046,333.06033 C1484.56017,333.443497 1484.83693,333.735462 1485.16152,333.936372 C1485.48584,334.137282 1485.81285,334.237565 1486.14221,334.237565 C1486.47157,334.237565 1486.75603,334.2142 1486.99571,334.167715 C1487.23513,334.120985 1487.45976,334.050743 1487.66949,333.957381 C1487.75933,333.331139 1488.00394,332.850044 1488.4031,332.513755 C1487.83417,332.457796 1487.32266,332.373515 1486.86832,332.261451 C1486.41424,332.14924 1485.94501,331.96713 1485.46093,331.714631 C1484.97659,331.462475 1484.5748,331.149354 1484.25546,330.775807 C1483.93606,330.402065 1483.67394,329.911399 1483.46945,329.304251 C1483.26486,328.696858 1483.16254,327.996201 1483.16254,327.202084 C1483.16254,326.071382 1483.55693,325.109194 1484.34556,324.314978 C1483.97613,323.464903 1484.01101,322.511943 1484.4503,321.456196 C1484.7398,321.372013 1485.16912,321.435187 1485.73806,321.645325 C1486.3071,321.855562 1486.72373,322.035659 1486.98837,322.184979 C1487.25301,322.334251 1487.46505,322.460746 1487.6248,322.563336 C1488.55336,322.320506 1489.5116,322.199067 1490.49979,322.199067 C1491.48798,322.199067 1492.44643,322.320506 1493.37504,322.563336 L1493.94403,322.227144 C1494.33312,322.00282 1494.7926,321.797247 1495.32136,321.610376 C1495.85044,321.423603 1496.25501,321.37216 1496.53465,321.456343 C1496.98369,322.512139 1497.02371,323.46505 1496.65418,324.315126 C1497.44275,325.109341 1497.83731,326.071775 1497.83731,327.202231 C1497.83731,327.996348 1497.73462,328.699214 1497.53034,329.31127 C1497.3258,329.923425 1497.06142,330.4136 1496.73709,330.782827 C1496.4124,331.152004 1496.00804,331.462671 1495.52396,331.714778 C1495.03978,331.967081 1494.57039,332.149191 1494.11631,332.261402 C1493.66202,332.373613 1493.15052,332.457944 1492.58158,332.514 C1493.10048,332.934276 1493.35999,333.597677 1493.35999,334.503907 L1493.35999,337.460715 C1493.35999,337.628688 1493.4224,337.768927 1493.54732,337.880991 C1493.67209,337.992859 1493.86913,338.025796 1494.13871,337.978918 C1496.45488,337.259658 1498.34409,335.963339 1499.80644,334.090012 C1501.26864,332.216832 1502,330.107842 1502,327.762501 C1501.99948,325.810293 1501.48508,324.009662 1500.45735,322.36061 Z" id="github"></path>
        </g>
    </g>
</svg>