<?xml version="1.0" encoding="UTF-8"?>
<svg width="26px" height="25px" viewBox="0 0 26 25" version="1.1" xmlns="http://www.w3.org/2000/svg" xmlns:xlink="http://www.w3.org/1999/xlink">
    <g id="Desktop" stroke="none" stroke-width="1" fill="none" fill-rule="evenodd" transform="translate(-457.000000, -7193.000000)">
        <g id="Footer" transform="translate(-277.000000, 7014.000000)" fill="#454545">
            <g id="social" transform="translate(734.500000, 47.000000)">
                <g id="Icons/Social/instagram" transform="translate(0.000000, 132.000000)">
                    <g id="instagram-logo">
                        <path d="M18.0349222,0 L6.87385633,0 C3.08361425,0 0,3.06174901 0,6.82493551 L0,17.9063312 C0,21.6696639 3.08361425,24.7312667 6.87385633,24.7312667 L18.0349222,24.7312667 C21.8254589,24.7312667 24.9090732,21.6695177 24.9090732,17.9063312 L24.9090732,6.82493551 C24.9092205,3.06174901 21.8254589,0 18.0349222,0 Z M22.6991668,17.9063312 C22.6991668,20.4597391 20.6068353,22.5369888 18.0350695,22.5369888 L6.87385633,22.5369888 C4.30223786,22.5371351 2.21005369,20.4597391 2.21005369,17.9063312 L2.21005369,6.82493551 C2.21005369,4.27167381 4.30223786,2.19427784 6.87385633,2.19427784 L18.0349222,2.19427784 C20.606688,2.19427784 22.6990195,4.27167381 22.6990195,6.82493551 L22.6990195,17.9063312 L22.6991668,17.9063312 Z" id="Shape" fill-rule="nonzero"></path>
                        <path d="M12.4545366,5.9933042 C8.9153566,5.9933042 6.03609865,8.85200937 6.03609865,12.3659259 C6.03609865,15.8796962 8.9153566,18.738255 12.4545366,18.738255 C15.9937166,18.738255 18.8729745,15.8796962 18.8729745,12.3659259 C18.8729745,8.85200937 15.9937166,5.9933042 12.4545366,5.9933042 Z M12.4545366,16.5438309 C10.1341275,16.5438309 8.24615234,14.6696251 8.24615234,12.3657796 C8.24615234,10.0617879 10.1339802,8.18743576 12.4545366,8.18743576 C14.775093,8.18743576 16.6629208,10.0617879 16.6629208,12.3657796 C16.6629208,14.6696251 14.7749456,16.5438309 12.4545366,16.5438309 Z" id="Shape" fill-rule="nonzero"></path>
                        <path d="M19.1421591,4.13270288 C18.7163554,4.13270288 18.2980659,4.30385655 17.9973512,4.60374119 C17.6951632,4.90216298 17.521453,5.31761292 17.521453,5.74183996 C17.521453,6.16475045 17.6953106,6.5800541 17.9973512,6.87993874 C18.2979185,7.17836052 18.7163554,7.35097705 19.1421591,7.35097705 C19.5694361,7.35097705 19.9863996,7.17836052 20.2884402,6.87993874 C20.5904809,6.5800541 20.7628651,6.16460416 20.7628651,5.74183996 C20.7628651,5.31761292 20.5904809,4.90216298 20.2884402,4.60374119 C19.9878729,4.30385655 19.5694361,4.13270288 19.1421591,4.13270288 Z" id="Shape" fill-rule="nonzero"></path>
                    </g>
                </g>
            </g>
        </g>
    </g>
</svg>
