<?xml version="1.0" encoding="UTF-8"?>
<svg width="110px" height="59px" viewBox="0 0 110 59" version="1.1" xmlns="http://www.w3.org/2000/svg" xmlns:xlink="http://www.w3.org/1999/xlink">
    <g id="A_DarkGrey" stroke="none" stroke-width="1" fill="none" fill-rule="evenodd">
        <path d="M33.4853278,56.2545265 C33.4853278,58.0859521 31.7546306,59.0016649 30.0823101,58.880333 C27.735796,58.7132154 26.7685744,57.987513 25.5563996,56.7501561 C24.3442248,55.5127992 23.737565,53.7843913 23.737565,51.5695109 L23.737565,51.4939646 C23.737565,51.448179 23.737565,51.4023933 23.737565,51.3566077 L23.737565,43.6108221 L22.592924,43.6108221 C21.7527575,43.6108221 21.0636837,43.3258065 20.5772112,42.839334 C20.0907388,42.3528616 19.8206035,41.6786681 19.8206035,40.8385016 C19.8122604,40.0941471 20.1005663,39.3770892 20.6218522,38.8456816 C21.1492677,38.3314918 21.861081,38.0506431 22.5975026,38.0661811 L23.7421436,38.0661811 L23.7421436,35.6429761 C23.7421436,34.6597294 24.0557752,33.8287201 24.5891779,33.23923 C25.1718666,32.6206408 25.984008,32.2699378 26.8338189,32.2699378 C27.6836299,32.2699378 28.4957713,32.6206408 29.0784599,33.23923 C29.6130073,33.832154 29.9266389,34.6631634 29.9266389,35.6429761 L29.9266389,38.0684703 L30.8526535,38.0684703 C31.6836629,38.0684703 32.4665973,38.2848075 33.0274714,38.7987513 C33.5265349,39.2566077 33.8367326,39.9204995 33.8367326,40.8407908 C33.8367326,41.7610822 33.5231009,42.4158169 33.0206035,42.8759625 C32.4597294,43.3876171 31.6802289,43.6131113 30.8457856,43.6131113 L29.9209157,43.6131113 C29.9209157,45.7936524 29.7721124,49.1405827 29.951821,51.282206 C30.0502601,52.4554631 30.340999,53.571488 31.1422477,53.8748179 C32.4562955,54.3601457 33.4853278,54.3544225 33.4853278,56.2545265 Z" id="Shape" fill="#A1A1A1"></path>
        <path d="M102.674298,44.9935484 C102.084853,44.2286423 101.173843,43.7805495 100.208169,43.7805495 C99.2424946,43.7805495 98.3314841,44.2286423 97.7420395,44.9935484 C97.0220604,45.9218522 96.6855359,47.239334 96.6855359,48.4766909 C96.6855359,49.7140479 97.0289282,50.9949011 97.7420395,51.8991675 C98.3353458,52.6583703 99.2452051,53.1020683 100.208741,53.1020683 C101.172277,53.1020683 102.082136,52.6583703 102.675442,51.8991675 C103.389698,50.9903226 103.731946,49.7037461 103.731946,48.4766909 C103.731946,47.2496358 103.395421,45.9218522 102.674298,44.9935484 Z M100.208741,38.0215401 C102.987929,38.0215401 105.359625,39.2028096 107.06743,41.0479709 C108.864516,42.9938606 109.916441,45.6711759 109.916441,48.4766909 C109.916441,51.3474506 108.9,53.9984391 107.125806,55.9031217 C105.430593,57.7231009 103.050884,58.8597294 100.208741,58.8597294 C97.3665973,58.8597294 94.985744,57.7231009 93.2905307,55.9031217 C91.5163371,53.9984391 90.5010406,51.3474506 90.5010406,48.4766909 C90.5010406,45.6723205 91.5529657,42.9915713 93.350052,41.0479709 C95.0509886,39.2028096 97.4238293,38.0215401 100.204162,38.0215401 L100.208741,38.0215401 Z" id="Shape" fill="#A1A1A1"></path>
        <path d="M60.5721124,55.5150884 L60.5721124,41.8560874 C60.5721124,40.8728408 60.885744,40.0418314 61.4202914,39.4523413 C61.9930318,38.8196854 62.8117005,38.4660839 63.6649324,38.4828304 C64.4467222,38.4828304 65.1026015,38.7014568 65.5970864,39.1066597 C65.8788179,39.3367833 66.1066173,39.6259284 66.2644121,39.9536941 C66.7806961,39.5079853 67.3590728,39.1397522 67.9813736,38.8605619 C68.8629331,38.4670311 69.8180524,38.2653168 70.7834547,38.2687825 C71.8827376,38.259262 72.9693737,38.5036964 73.9586889,38.9830385 C74.768913,39.3846833 75.4965339,39.9348642 76.1037461,40.6049948 C76.7624333,39.9700913 77.5192225,39.4455954 78.3449532,39.051717 C79.4026015,38.5434964 80.5197711,38.2687825 81.489282,38.2687825 C83.7568158,38.2687825 85.6683663,38.9555671 87.0064516,40.2707596 C88.2895942,41.5298647 89.0278876,43.3612903 89.0278876,45.7009365 L89.0278876,55.5150884 C89.0278876,56.4983351 88.714256,57.3293444 88.1797086,57.9188345 C87.59702,58.5374238 86.7848786,58.8881267 85.9350676,58.8881267 C85.0852567,58.8881267 84.2731153,58.5374238 83.6904266,57.9188345 C83.1570239,57.3259105 82.8422477,56.4949011 82.8422477,55.5150884 L82.8422477,46.5868887 C82.8422477,45.6711759 82.5950052,44.8973985 82.1474506,44.369719 C81.7342352,43.882102 81.1332986,43.5970864 80.3869927,43.5970864 C79.6406868,43.5970864 79.0134235,43.882102 78.5956296,44.3685744 C78.1377732,44.8951093 77.8951093,45.6665973 77.8951093,46.5868887 L77.8951093,55.5150884 C77.8951093,56.4983351 77.5814776,57.3293444 77.0469303,57.9188345 C76.4642416,58.5374238 75.6521003,58.8881267 74.8022893,58.8881267 C73.9524783,58.8881267 73.140337,58.5374238 72.5576483,57.9188345 C72.0242456,57.3259105 71.7106139,56.4949011 71.7106139,55.5150884 L71.7106139,46.5868887 C71.7106139,45.6711759 71.4622268,44.8973985 71.0158169,44.369719 C70.5746471,43.8584267 69.9257131,43.5743602 69.2507804,43.5970864 C68.4129032,43.5970864 67.8108221,43.8626431 67.4193548,44.3193548 C66.9706556,44.8436004 66.7600416,45.635692 66.7600416,46.5868887 L66.7600416,55.5150884 C66.7600416,56.4983351 66.44641,57.3293444 65.9130073,57.9188345 C65.3303186,58.5374238 64.5181773,58.8881267 63.6683663,58.8881267 C62.8185553,58.8881267 62.006414,58.5374238 61.4237253,57.9188345 C60.885744,57.3281998 60.5721124,56.4971904 60.5721124,55.5150884 Z" id="Shape" fill="#A1A1A1"></path>
        <path d="M55.7108221,38.0684703 C56.6048137,38.078967 57.4597428,38.4364529 58.0951093,39.0654527 C58.7396575,39.6770869 59.110942,40.5223779 59.1252862,41.4108221 C59.1241495,42.3284882 58.7647825,43.2094507 58.1237253,43.866077 C57.4974266,44.5270841 56.625607,44.8995907 55.7150238,44.8952546 C54.8044407,44.8909184 53.9362082,44.5101259 53.3162331,43.8431842 C52.6737732,43.1953869 52.3084447,42.3231138 52.2975026,41.4108221 C52.3177667,40.5224371 52.6933789,39.6792682 53.3402706,39.0700312 C53.9716027,38.440696 54.8229241,38.081532 55.714256,38.0684703 L55.7108221,38.0684703 Z M52.6202914,55.4899063 L52.6202914,49.7220604 C52.6202914,48.7376691 52.9350676,47.9078044 53.4684703,47.3183143 C54.051159,46.6997251 54.8633004,46.3490221 55.7131113,46.3490221 C56.5629223,46.3490221 57.3750637,46.6997251 57.9577523,47.3183143 C58.491155,47.9112383 58.8059313,48.741103 58.8059313,49.7220604 L58.8059313,55.4899063 C58.8059313,56.4742976 58.4922997,57.3041623 57.9577523,57.8936524 C57.3750637,58.5122416 56.5629223,58.8629446 55.7131113,58.8629446 C54.8633004,58.8629446 54.051159,58.5122416 53.4684703,57.8936524 C52.9327784,57.3041623 52.6191467,56.4742976 52.6191467,55.4899063 L52.6202914,55.4899063 Z" id="Shape" fill="#A1A1A1"></path>
        <path d="M50.3401665,42.2830385 C50.3375886,43.0129444 50.0638524,43.7158469 49.5721124,44.2552549 C49.0971088,44.7841697 48.4206747,45.0876712 47.7097815,45.0908429 C47.182102,45.0908429 46.5319459,44.7898023 45.7925078,44.4475546 C44.9431842,44.0537981 43.9610822,43.5970864 43.1220604,43.5970864 C42.7420395,43.5970864 42.3975026,43.6806452 42.1742976,43.8637877 C41.9940509,44.0197809 41.8967285,44.2508159 41.9110302,44.4887617 C41.9110302,45.0519251 43.10718,45.5063476 44.5677419,46.0592092 C47.3,47.0962539 50.8026015,48.4240375 50.8026015,52.3490114 C50.8164693,54.1904501 49.989088,55.9375186 48.5556712,57.0935484 C47.194693,58.2164412 45.2774194,58.8906348 42.9801249,58.8906348 C41.3295525,58.8906348 39.2474506,58.3801249 37.6930281,57.5170656 C36.2977107,56.7467222 35.2995838,55.68564 35.2995838,54.407076 C35.2995838,53.8496358 35.6074922,53.0129032 36.1901145,52.4108221 C36.6663342,51.8965824 37.334408,51.602746 38.0352758,51.5992716 C39.1181061,51.5992716 39.8770031,52.028512 40.6679501,52.4772112 C41.4131113,52.8984391 42.1971904,53.3414152 43.330385,53.3414152 C43.9862643,53.3414152 44.3880333,53.2555671 44.6032258,53.0873049 C44.7657648,52.9591051 44.832154,52.7313215 44.832154,52.4154006 C44.832154,51.8716961 43.6520291,51.4264308 42.2074922,50.8815817 C39.4718002,49.8514048 35.9405827,48.5156087 35.9405827,44.5551509 C35.9405827,42.6229969 36.7223725,40.9953174 38.0558793,39.8472425 C39.3893861,38.6991675 41.2414152,38.0478668 43.407076,38.0478668 C44.9065557,38.0478668 46.8650364,38.4439126 48.2958377,39.271488 C49.4919875,39.9674298 50.3401665,40.9598335 50.3401665,42.2830385 Z" id="Shape" fill="#A1A1A1"></path>
        <path d="M12.1744017,45.0244537 C11.5953564,44.2465955 10.6772863,43.7950158 9.70770031,43.8111342 C8.73834537,43.7946272 7.82045394,44.2463286 7.2421436,45.0244537 C6.52445369,45.9527575 6.18106139,47.2736733 6.18106139,48.5075963 C6.18106139,49.7415193 6.52445369,51.0258065 7.23756504,51.9300728 C7.82075935,52.7016768 8.73718462,53.1486202 9.70426639,53.1330905 C10.6713896,53.1488064 11.5878947,52.7018241 12.1709677,51.9300728 C12.8852237,51.0212279 13.2274714,49.7346514 13.2274714,48.5075963 C13.2274714,47.2805411 12.8909469,45.9527575 12.1709677,45.0244537 L12.1744017,45.0244537 Z M9.70770031,38.0524454 C12.4880333,38.0524454 14.8585848,39.2337149 16.5663892,41.0788762 C18.3634755,43.0247659 19.4154006,45.7020812 19.4154006,48.5075963 C19.4154006,51.3783559 18.4001041,54.0293444 16.6259105,55.9340271 C14.9295525,57.7540062 12.5498439,58.8906348 9.70770031,58.8906348 C6.86555671,58.8906348 4.48584807,57.7540062 2.79063476,55.9340271 C1.01644121,54.0270552 0,51.3783559 0,48.5075963 C0,45.7032258 1.05192508,43.0224766 2.84901145,41.0788762 C4.55567118,39.2337149 6.92851197,38.0524454 9.70770031,38.0524454 Z" id="Shape" fill="#A1A1A1"></path>
        <path d="M30.0880333,14.1557752 C29.9083247,15.0050989 29.8373569,15.8727367 30.0193548,16.6259105 C30.1887617,17.3229969 30.7885536,17.3848075 31.4181061,17.3126951 C33.5505723,17.0768991 35.5594173,16.6156087 38.3328824,15.6094693 C38.6167534,15.5064516 38.8365245,15.1138398 38.6854318,14.7921956 C35.9829344,9.03121748 35.3762747,4.55452653 35.2171696,1.2591051 C35.1805411,0.507075963 34.7467222,0.500208117 34.4651405,1.02330905 C33.2701353,3.23704475 30.5413111,12.0061394 30.0880333,14.1557752 Z" id="Shape" fill="#A1A1A1"></path>
        <path d="M41.337565,14.5140479 C44.6341311,13.0866805 47.0058273,11.8218522 50.912487,8.79084287 C51.4378772,8.38335068 51.9243496,7.90832466 51.5065557,7.15515088 C50.6080125,5.53891779 41.1784599,1.01758585 38.2184183,0.152237253 C37.3542144,-0.100728408 36.7097815,-0.152237253 36.7040583,0.915712799 C36.6845994,5.56066597 38.1600416,10.1209157 40.1379813,14.2748179 C40.4252862,14.880333 40.7492196,14.7658689 41.337565,14.5140479 Z" id="Shape" fill="#A1A1A1"></path>
        <path d="M52.9533819,11.3422477 C52.7610822,15.6151925 51.5420395,22.994693 51.2295525,27.4931322 C51.2181061,27.6556712 51.2066597,27.8239334 51.2032258,27.9887617 C51.1791883,29.1734651 50.39282,28.7133195 49.901769,28.2119667 C46.0237253,24.2377732 43.4334027,20.1811655 41.4440166,16.7735692 C41.264308,16.4645161 41.4772112,16.0181061 41.8343392,15.8578564 C44.6776275,14.6044745 48.0772112,13.1416233 51.3199792,10.6497399 C52.3398543,9.86909469 53.0174818,9.92289282 52.9533819,11.3422477 Z" id="Shape" fill="#A1A1A1"></path>
        <path d="M48.6277836,29.119667 C44.726847,24.9085328 41.9259105,20.9057232 39.928512,17.2417274 C39.6228928,16.6808533 39.494693,16.8193548 38.9132154,17.0288241 C36.5552549,17.880437 34.7020812,18.2627471 32.7493236,18.6313215 C32.0762747,18.7595213 32.4059313,19.4325702 32.6657648,19.8183143 C34.6265349,22.7451613 45.469719,28.746514 47.9558793,29.4069719 C48.1962539,29.4756504 49.0902185,29.6198751 48.6277836,29.119667 Z" id="Shape" fill="#A1A1A1"></path>
        <path d="M50.0494277,29.4573361 C50.2112213,29.7850487 50.4236816,30.0851972 50.6789802,30.3467222 C51.1640168,30.8561477 51.7915816,31.2072329 52.4795005,31.3540062 C52.8159499,31.4206088 53.1588418,31.4490231 53.5016649,31.4387097 C54.2043181,31.4006161 54.8980141,31.2630331 55.5620187,31.0300728 C55.7325702,30.9774194 55.905411,30.9156087 56.0702393,30.8457856 C56.2350676,30.7759625 56.4056191,30.7072841 56.5715921,30.6351717 C56.737565,30.5630593 56.9023933,30.4795005 57.0649324,30.3947971 L57.3064516,30.2654527 L57.601769,30.1212279 C58.3915713,29.7434964 59.2832466,29.4184183 60.2973985,29.3760666 C60.8193369,29.3544056 61.3413067,29.4182019 61.8426639,29.5649324 C63.2896054,29.9974565 64.4210514,31.1301936 64.8519251,32.5776275 C64.9815488,32.9858661 65.0584811,33.4089937 65.0808533,33.8367326 C65.0934516,34.0445732 65.0911565,34.253049 65.0739854,34.4605619 C65.0611397,34.6697327 65.0297293,34.8773479 64.9801249,35.0809573 C64.9600269,35.1527913 64.8866496,35.1958056 64.8141519,35.1782518 C64.7796567,35.1699668 64.7494694,35.1491621 64.7294485,35.1198751 L64.7294485,35.1118626 C64.3315772,34.4743053 63.8809158,33.8712536 63.382206,33.3090531 C62.9765627,32.8436847 62.4778295,32.4685624 61.9182102,32.2079084 C61.6788823,32.1061362 61.4277935,32.0346162 61.1707596,31.9950052 C60.9057882,31.952384 60.6378871,31.9305692 60.3695109,31.9297607 C59.7240194,31.9283278 59.0809488,32.0087117 58.4556712,32.1689906 L58.2015609,32.2399584 L57.8936524,32.3223725 C57.6899063,32.3796046 57.4884495,32.4368366 57.2789802,32.4894901 C57.0695109,32.5421436 56.8680541,32.5970864 56.6551509,32.6371488 C56.4422477,32.6772112 56.2362123,32.7264308 56.0198751,32.7516129 C55.1479044,32.9070223 54.2560138,32.9147611 53.3814776,32.7745057 C52.4886571,32.6400151 51.6538312,32.2500321 50.9777315,31.6516129 C50.3592253,31.0864448 49.9457671,30.3319944 49.8021852,29.5065557 C49.797301,29.4737171 49.8058307,29.4402942 49.8258537,29.4138121 C49.8458768,29.3873299 49.8757102,29.3700147 49.9086368,29.3657648 C49.9650784,29.3564429 50.0209397,29.3853046 50.0459938,29.4367326 L50.0494277,29.4573361 Z" id="Shape" fill="#A1A1A1" fill-rule="nonzero"></path>
    </g>
</svg>