<?xml version="1.0" encoding="UTF-8"?>
<svg width="76px" height="66px" viewBox="0 0 76 66" version="1.1" xmlns="http://www.w3.org/2000/svg" xmlns:xlink="http://www.w3.org/1999/xlink">
    <!-- Generator: Sketch 47.1 (45422) - http://www.bohemiancoding.com/sketch -->
    <title>green</title>
    <desc>Created with Sketch.</desc>
    <defs></defs>
    <g id="Page-1" stroke="none" stroke-width="1" fill="none" fill-rule="evenodd">
        <g id="Desktop" transform="translate(-645.000000, -4818.000000)" fill-rule="nonzero" fill="#FF638E">
            <g id="People-love-otsimo-Copy" transform="translate(-283.000000, 4753.000000)">
                <g id="People-said-that" transform="translate(765.000000, 65.000000)">
                    <path d="M239,20.5748988 C239,9.21151035 229.811095,0 218.476164,0 C211.074663,0 204.610825,3.94067701 200.999769,9.82988923 C197.389175,3.94067701 190.92256,0 183.521214,0 C172.186283,0 163,9.21151035 163,20.5748988 C163,26.7616256 165.73463,32.2965728 170.044575,36.0657614 L199.126912,65.2223487 C199.623585,65.7202682 200.297177,66 200.999769,66 C201.70236,66 202.375953,65.7202682 202.872625,65.2223487 L231.954962,36.0657614 C236.265062,32.2965728 239,26.7616256 239,20.5748988 Z" id="green"></path>
                </g>
            </g>
        </g>
    </g>
</svg>