<svg xmlns="http://www.w3.org/2000/svg" width="73" height="163" viewBox="0 0 73 163">
    <path fill="#E7F7FF" fill-rule="nonzero" d="M9.787 143.238c1.811-4.723 7.278-6.754 7.278-6.754s1.32 6.819-1.255 11.305c-.83 1.447-2.406 2.864-3.884 3.991a63.905 63.905 0 0 0 7.801-3.01 21.943 21.943 0 0 1-.12-9.517c1.004-4.888 5.963-7.858 5.963-7.858s2.346 6.335.545 11.146c-.583 1.57-1.909 3.253-3.175 4.623a69.045 69.045 0 0 0 4.72-2.728c.889-.52 1.772-1.086 2.662-1.688a21.314 21.314 0 0 1-1.637-9.257c.202-4.906 4.517-8.684 4.517-8.684s3.273 5.685 2.302 10.626c-.338 1.771-1.478 3.773-2.553 5.384a62.723 62.723 0 0 0 6.825-6.145 20.458 20.458 0 0 1-3.071-8.66c-.579-4.765 2.995-9.21 2.995-9.21s4.042 4.882 3.895 9.853c-.055 1.712-.808 3.837-1.577 5.573a76.186 76.186 0 0 0 5.636-7.344c-1.966-2.17-3.424-4.815-4.256-7.716-1.303-4.499 1.446-9.446 1.446-9.446s4.67 3.967 5.308 8.796c.213 1.577-.136 3.625-.572 5.384a79.525 79.525 0 0 0 4.277-7.97c-2.26-1.735-4.1-4.033-5.369-6.7-1.969-4.097-.092-9.375-.092-9.375s5.133 2.952 6.503 7.51c.474 1.564.436 3.742.267 5.578a76.353 76.353 0 0 0 3.071-8.855c-2.491-1.258-4.661-3.155-6.322-5.526-2.543-3.595-1.566-9.032-1.566-9.032s5.417 1.924 7.457 6.051c.748 1.511 1.048 3.808 1.162 5.685a71.548 71.548 0 0 0 1.637-9.735c-2.624-.748-5.037-2.183-7.027-4.18-3.022-3.004-2.93-8.43-2.93-8.43s5.533.856 8.151 4.47c.971 1.333 1.637 3.541 2.03 5.312.29-3.417.33-6.854.12-10.278-2.702-.21-5.311-1.152-7.589-2.739-3.388-2.361-4.157-7.598-4.157-7.598s5.456-.189 8.57 2.81c1.24 1.181 2.281 3.436 2.952 5.166a76.906 76.906 0 0 0-1.767-10.703 14.803 14.803 0 0 1-7.693-1.27c-3.633-1.635-5.204-6.57-5.204-6.57s5.253-1.18 8.729 1.133c1.336.904 2.65 2.77 3.567 4.286a81.38 81.38 0 0 0-3.447-10.036 14.393 14.393 0 0 1-7.638.195c-3.732-.927-6.034-5.378-6.034-5.378s4.883-2.12 8.587-.508c1.44.626 3.011 2.202 4.14 3.507a79.666 79.666 0 0 0-4.97-9.31 14.211 14.211 0 0 1-7.451 1.659c-3.781-.183-6.689-4.08-6.689-4.08s4.365-2.951 8.183-2.072c1.637.372 3.64 1.848 4.949 2.952a67.414 67.414 0 0 0-6.629-8.56c-2.061 1.668-4.489 2.726-7.043 3.07-3.677.52-7.092-2.704-7.092-2.704s3.77-3.648 7.589-3.507c1.81.065 4.222 1.329 5.635 2.173a51.023 51.023 0 0 0-3.917-3.678 78.046 78.046 0 0 0-4.364-3.648c-1.726 1.98-3.897 3.44-6.301 4.238-3.465 1.181-7.278-1.298-7.278-1.298s3.06-4.21 6.776-4.788c1.734-.272 4.211.478 5.712 1.033a68.154 68.154 0 0 0-9.078-5.685c-1.354 2.286-3.247 4.14-5.483 5.372-3.159 1.771-7.229.083-7.229.083s2.292-4.629 5.789-5.868c1.827-.644 4.746-.237 6.18.03a63.006 63.006 0 0 0-6.317-2.764c-.742.396-3.208 1.547-5.455.72-1.944-.693-3.668-1.963-4.976-3.666 0 0 3.437-1.422 5.456-1.05 2.558.472 4.648 3.164 5.079 3.754a57.697 57.697 0 0 1 5.03 1.984c-1.233-.915-3.492-2.757-4.365-4.54C13.988 5.03 15.303 0 15.303 0s4.015 1.836 5.15 5.49c.823 2.581.993 5.353.49 8.03a65.817 65.817 0 0 1 9.4 5.365c-1.09-1.21-2.875-3.323-3.42-5.16-1.157-3.872 1.004-8.69 1.004-8.69s3.731 2.616 4.277 6.495c.4 2.726.125 5.52-.797 8.093a74.392 74.392 0 0 1 5.587 4.416 47.76 47.76 0 0 1 2.515 2.208c-.895-1.458-2.002-3.542-2.22-5.248-.546-4.133 2.427-8.543 2.427-8.543s3.328 3.342 3.235 7.356a17.094 17.094 0 0 1-2.03 7.817 64.801 64.801 0 0 1 6.738 8.034c-.633-1.617-1.33-3.796-1.27-5.455.146-4.232 3.818-8.117 3.818-8.117s2.815 3.997 2.062 8.011c-.496 2.748-1.634 5.313-3.306 7.45a79.52 79.52 0 0 1 5.401 9.446c-.382-1.77-.753-4.132-.415-5.862.84-4.221 5.189-7.42 5.189-7.42s2.149 4.533.769 8.418c-.962 2.675-2.544 5.037-4.594 6.86a82.436 82.436 0 0 1 3.732 9.853c-.071-1.771 0-4.009.545-5.532 1.555-4.062 6.449-6.447 6.449-6.447s1.418 4.989-.639 8.62c-1.375 2.468-3.304 4.521-5.608 5.968a78.604 78.604 0 0 1 2.002 9.83 14.393 14.393 0 0 1 1.386-4.806c2.182-3.808 7.518-5.26 7.518-5.26s.605 5.313-2.051 8.542c-1.754 2.17-3.974 3.841-6.465 4.865.305 3.271.389 6.562.25 9.847a14.103 14.103 0 0 1 2.15-4.487C67.424 76.593 73 76.15 73 76.15s-.256 5.425-3.459 8.194c-2.128 1.854-4.647 3.11-7.332 3.654a72.489 72.489 0 0 1-1.162 9.257 13.664 13.664 0 0 1 2.826-3.985c3.42-2.845 9.094-2.225 9.094-2.225s-1.145 5.401-4.822 7.568a15.927 15.927 0 0 1-7.894 2.267 77.354 77.354 0 0 1-2.728 8.855 13.611 13.611 0 0 1 3.519-3.477c3.906-2.232 9.503-.514 9.503-.514s-2.035 5.207-6.083 6.683a16.06 16.06 0 0 1-8.33.762 81.348 81.348 0 0 1-4.141 8.294c1.26-1.18 2.799-2.414 4.19-2.898 4.288-1.494 9.634 1.304 9.634 1.304s-2.897 4.841-7.207 5.55a16.37 16.37 0 0 1-8.521-.85 78.955 78.955 0 0 1-5.096 7.143 12.406 12.406 0 0 1 4.327-1.86c4.555-.679 9.465 3.159 9.465 3.159s-3.704 4.31-8.15 4.197a16.951 16.951 0 0 1-8.25-2.361 68.258 68.258 0 0 1-5.87 5.832c1.351-.56 2.782-.862 4.229-.891 4.686.189 8.996 4.982 8.996 4.982s-4.43 3.625-8.876 2.651c-2.861-.615-5.546-1.956-7.834-3.914a51.335 51.335 0 0 1-4.261 2.87 74.614 74.614 0 0 1-2.668 1.635c1.51-.331 3.06-.371 4.583-.119 4.675 1.087 8.227 6.736 8.227 6.736s-5.047 2.793-9.357.963c-2.802-1.18-5.302-3.071-7.288-5.514a67.061 67.061 0 0 1-7.316 3.182 12.278 12.278 0 0 1 4.544.755c4.523 1.99 7.164 8.348 7.164 8.348s-5.527 1.836-9.558-.826c-2.61-1.713-4.804-4.075-6.4-6.89a56.088 56.088 0 0 1-10.463 2.131l-.115-1.257-.12-1.258c2.811-.291 5.6-.794 8.347-1.505a22.316 22.316 0 0 1 1.44-9.54z"/>
</svg>
