<svg xmlns="http://www.w3.org/2000/svg" width="72" height="72" viewBox="0 0 72 72">
    <g fill="none" fill-rule="evenodd">
        <path fill="#BFEAFF" d="M30.11 0h11.78C51.8 0 55.81 1.114 59.722 3.206c3.911 2.091 6.98 5.16 9.072 9.072C70.886 16.189 72 20.2 72 30.11v11.78c0 9.91-1.114 13.921-3.206 17.832-2.091 3.911-5.16 6.98-9.072 9.072C55.811 70.886 51.8 72 41.89 72H30.11c-9.91 0-13.921-1.114-17.832-3.206-3.911-2.091-6.98-5.16-9.072-9.072C1.114 55.811 0 51.8 0 41.89V30.11C0 20.2 1.114 16.19 3.206 12.278c2.091-3.911 5.16-6.98 9.072-9.072C16.189 1.114 20.2 0 30.11 0z"/>
        <path fill="#77D2FF" d="M30.933 41.542v1.867c0 1.288.38 3.155-6.586 4.508C17.38 49.269 17 55 17 55h38s0-5.538-7.853-7.083c-6.777-1.353-6.714-3.22-6.714-4.508V41.67"/>
        <path fill="#77D2FF" d="M25.554 47.677L35.754 55l10.199-7.196m-6.63-5.348a10.953 10.953 0 0 0 4.59-6.56c1.913 0 2.359-2.737 2.359-3.374s.318-2.93-1.594-2.993v-3.82m-17.849 0v3.82c-1.912 0-1.912 2.61-1.912 3.184 0 .573.255 3.184 2.167 3.184a10.125 10.125 0 0 0 4.59 6.559"/>
        <path fill="#77D2FF" d="M26.913 26.087h18.174v8.26c-4.12 7.302-7.2 10.952-9.241 10.952-2.042 0-5.02-3.65-8.933-10.951v-8.261z"/>
        <path fill="#77D2FF" d="M26.913 21.13v5.14L36 27.74l9.087-1.47v-5.14"/>
        <path fill="#00ADFE" d="M36.31 23.315l-15.455-3.297a.413.413 0 0 1 .028-.812l15.455-2.198a.413.413 0 0 1 .116 0l15.454 2.198a.413.413 0 0 1 .028.812l-15.454 3.297a.412.412 0 0 1-.172 0z"/>
        <path stroke="#00ADFE" stroke-linecap="round" stroke-width="1.485" d="M21.13 19.891v13.803"/>
    </g>
</svg>
