<?xml version="1.0" encoding="UTF-8"?>
<svg width="25px" height="20px" viewBox="0 0 25 20" version="1.1" xmlns="http://www.w3.org/2000/svg" xmlns:xlink="http://www.w3.org/1999/xlink">
    <g id="Desktop" stroke="none" stroke-width="1" fill="none" fill-rule="evenodd" transform="translate(-458.000000, -7148.000000)">
        <g id="Footer" transform="translate(-277.000000, 7014.000000)" fill="#454545">
            <g id="social" transform="translate(734.500000, 47.000000)">
                <g id="Icons/Social/twitter" transform="translate(1.000000, 87.000000)">
                    <path d="M21.423151,5.51030762 C21.423151,12.0327432 16.5052812,19.5552757 7.51252002,19.5552757 C4.75124487,19.5552757 2.18209729,18.7386553 0.0180558713,17.3385198 C0.400821627,17.3836369 0.789544827,17.4061955 1.18422547,17.4061955 C3.47486256,17.4061955 5.58230826,16.6181493 7.25634994,15.2932091 C5.1161383,15.2541076 3.31103286,13.8269018 2.68848,11.8658098 C2.98784154,11.9229582 3.29316053,11.9530363 3.60890505,11.9530363 C4.05422396,11.9530363 4.48613863,11.8928801 4.89720224,11.7800872 C2.66018214,11.3274118 0.975714942,9.33173002 0.975714942,6.9405212 L0.975714942,6.87735719 C1.63401247,7.2473178 2.38911845,7.46989573 3.19039463,7.49546211 C1.87826766,6.60966212 1.01443833,5.09823767 1.01443833,3.38679388 C1.01443833,2.48144311 1.25571479,1.63324074 1.67720393,0.903846856 C4.08847926,3.89060202 7.69124333,5.85620575 11.7542199,6.06224072 C11.6708157,5.70130354 11.6276242,5.32382341 11.6276242,4.93731985 C11.6276242,2.21074023 13.8169848,0 16.5157068,0 C17.9231528,0 19.1935777,0.600058062 20.0842155,1.5595494 C21.1982575,1.33847538 22.2452782,0.927909334 23.189533,0.362441085 C22.8246396,1.51443225 22.0486826,2.48144311 21.0403852,3.09353242 C22.0293209,2.97322002 22.970597,2.70853276 23.8478306,2.31601357 C23.1925118,3.30558301 22.3629377,4.17484005 21.4082574,4.87114803 C21.4171936,5.08319862 21.423151,5.29524922 21.423151,5.51030762 Z" id="Path"></path>
                </g>
            </g>
        </g>
    </g>
</svg>
