<?xml version="1.0" encoding="UTF-8"?>
<svg width="28px" height="19px" viewBox="0 0 28 19" version="1.1" xmlns="http://www.w3.org/2000/svg" xmlns:xlink="http://www.w3.org/1999/xlink">
    <g id="Desktop" stroke="none" stroke-width="1" fill="none" fill-rule="evenodd" transform="translate(-457.000000, -7245.000000)">
        <g id="Footer" transform="translate(-277.000000, 7014.000000)" fill="#454545">
            <g id="social" transform="translate(734.500000, 47.000000)">
                <g id="Icons/Social/youtube" transform="translate(0.000000, 184.000000)">
                    <g id="youtube-symbol">
                        <path d="M26.533439,3.05637726 C26.2028893,1.60667117 25.0284068,0.537118987 23.6145126,0.377572529 C20.2663734,0.000232493247 16.8775426,-0.00173721611 13.5043195,0.000232493247 C10.130539,-0.00173721611 6.74115071,0.000232493247 3.39301148,0.377572529 C1.97995347,0.537118987 0.806307066,1.60667117 0.475757401,3.05637726 C0.00529548367,5.12091405 0,7.37454294 0,9.50014073 C0,11.6257385 0,13.879086 0.470461917,15.9433414 C0.800454163,17.3927661 1.97437928,18.4623183 3.38827342,18.6221462 C6.73613393,18.9997676 10.1252435,19.0017373 13.499024,18.9997676 C16.8733619,19.0017373 20.2616353,18.9997676 23.6092172,18.6221462 C25.0222752,18.4625997 26.1970364,17.3930475 26.5275861,15.9433414 C26.9983267,13.8788046 26.999999,11.6254571 26.999999,9.50014073 C26.999999,7.37454294 27.0039009,5.12091405 26.533439,3.05637726 Z M10.0157106,13.7310764 C10.0157106,10.7157328 10.0157106,7.7319045 10.0157106,4.71627947 C12.8772227,6.2236699 15.7197826,7.7209304 18.5994109,9.23760661 C15.7287013,10.7407762 12.8847479,12.2290324 10.0157106,13.7310764 Z" id="Shape" fill-rule="nonzero"></path>
                    </g>
                </g>
            </g>
        </g>
    </g>
</svg>
